# xmcd
#
# Track frame offsets:
#	183
#	9568
#	18320
#	29938
#	42533
#	54395
#	64698
#	77133
#	89283
#	98495
#	108388
#	121048
#	131683
#	143908
#	154533
#	167758
# Disc length: 2350 seconds
# Revision: 2
# Processed by: cddbd v1.5.2PL0 Copyright (c) Steve Scherf et al.
#
# Submitted via: libkcddb 0.21
#
DISCID=cc092c10
DTITLE=Sam Cooke - Wonderful World
DYEAR=1992
DGENRE=Rhythm And Blues
TTITLE0=Wonderful World
TTITLE1=Around The World
TTITLE2=Ol Man River
TTITLE3=Mary, Mary Lou
TTITLE4=Everybody Likes To Cha Cha Cha
TTITLE5=Love You Most Of All
TTITLE6=Win Your Love For Me
TTITLE7=Danny Boy
TTITLE8=Only Sixteen
TTITLE9=I'll Come Running Back To You
TTITLE10=I Don't Want To Cry
TTITLE11=Lovable
TTITLE12=You Send Me
TTITLE13=That's All I Need To Know
TTITLE14=Forever
TTITLE15=Happy In Love
EXTD=4011692290019 (ST 9001)
EXTT0=
EXTT1=
EXTT2=
EXTT3=
EXTT4=
EXTT5=
EXTT6=
EXTT7=
EXTT8=
EXTT9=
EXTT10=
EXTT11=
EXTT12=
EXTT13=
EXTT14=
EXTT15=
PLAYORDER=
